<mxfile host="65bd71144e">
    <diagram id="r9IroojASSHWRv5Acxil" name="Page-1">
        <mxGraphModel dx="1813" dy="852" grid="1" gridSize="10" guides="1" tooltips="1" connect="1" arrows="1" fold="1" page="1" pageScale="1" pageWidth="850" pageHeight="1100" math="0" shadow="0">
            <root>
                <mxCell id="0"/>
                <mxCell id="1" parent="0"/>
                <mxCell id="8" value="" style="edgeStyle=none;html=1;fontSize=24;" edge="1" parent="1" target="7">
                    <mxGeometry relative="1" as="geometry">
                        <mxPoint x="240" y="150" as="sourcePoint"/>
                    </mxGeometry>
                </mxCell>
                <mxCell id="10" value="" style="edgeStyle=none;html=1;fontSize=24;" edge="1" parent="1" source="7" target="9">
                    <mxGeometry relative="1" as="geometry"/>
                </mxCell>
                <mxCell id="39" value="" style="edgeStyle=none;html=1;fontSize=24;" edge="1" parent="1" source="7" target="38">
                    <mxGeometry relative="1" as="geometry"/>
                </mxCell>
                <mxCell id="7" value="Blob management Api" style="whiteSpace=wrap;html=1;fontSize=24;rounded=0;" vertex="1" parent="1">
                    <mxGeometry x="260" y="120" width="225" height="70" as="geometry"/>
                </mxCell>
                <mxCell id="9" value="Azure blob service" style="whiteSpace=wrap;html=1;fontSize=24;rounded=0;" vertex="1" parent="1">
                    <mxGeometry x="565" y="105" width="155" height="60" as="geometry"/>
                </mxCell>
                <mxCell id="11" value="Rdms (MsSql)" style="whiteSpace=wrap;html=1;fontSize=24;rounded=0;" vertex="1" parent="1">
                    <mxGeometry x="565" y="240" width="155" height="60" as="geometry"/>
                </mxCell>
                <mxCell id="13" value="" style="endArrow=classic;startArrow=classic;html=1;fontSize=24;entryX=1.029;entryY=0.643;entryDx=0;entryDy=0;exitX=0;exitY=0.5;exitDx=0;exitDy=0;entryPerimeter=0;" edge="1" parent="1" source="11" target="7">
                    <mxGeometry width="50" height="50" relative="1" as="geometry">
                        <mxPoint x="470" y="330" as="sourcePoint"/>
                        <mxPoint x="520" y="280" as="targetPoint"/>
                    </mxGeometry>
                </mxCell>
                <mxCell id="17" value="Web" style="rounded=0;whiteSpace=wrap;html=1;fontSize=24;" vertex="1" parent="1">
                    <mxGeometry x="-210" y="300" width="180" height="70" as="geometry"/>
                </mxCell>
                <mxCell id="15" value="Mobile&lt;br&gt;" style="rounded=0;whiteSpace=wrap;html=1;fontSize=24;" vertex="1" parent="1">
                    <mxGeometry x="-210" y="130" width="180" height="70" as="geometry"/>
                </mxCell>
                <mxCell id="18" value="Desktop" style="rounded=0;whiteSpace=wrap;html=1;fontSize=24;" vertex="1" parent="1">
                    <mxGeometry x="-210" y="460" width="180" height="70" as="geometry"/>
                </mxCell>
                <mxCell id="26" value="" style="edgeStyle=none;html=1;fontSize=24;" edge="1" parent="1" source="22" target="25">
                    <mxGeometry relative="1" as="geometry"/>
                </mxCell>
                <mxCell id="22" value="Identity Api (users)" style="whiteSpace=wrap;html=1;fontSize=24;rounded=0;" vertex="1" parent="1">
                    <mxGeometry x="270" y="380" width="155" height="70" as="geometry"/>
                </mxCell>
                <mxCell id="28" value="" style="edgeStyle=none;html=1;fontSize=24;" edge="1" parent="1" source="24" target="27">
                    <mxGeometry relative="1" as="geometry"/>
                </mxCell>
                <mxCell id="24" value="Subcription" style="whiteSpace=wrap;html=1;fontSize=24;rounded=0;" vertex="1" parent="1">
                    <mxGeometry x="260" y="570" width="155" height="70" as="geometry"/>
                </mxCell>
                <mxCell id="25" value="Rdms" style="whiteSpace=wrap;html=1;fontSize=24;rounded=0;" vertex="1" parent="1">
                    <mxGeometry x="500" y="380" width="155" height="70" as="geometry"/>
                </mxCell>
                <mxCell id="27" value="Rdmd" style="whiteSpace=wrap;html=1;fontSize=24;rounded=0;" vertex="1" parent="1">
                    <mxGeometry x="540" y="580" width="155" height="70" as="geometry"/>
                </mxCell>
                <mxCell id="36" value="" style="rounded=0;whiteSpace=wrap;html=1;fontSize=24;fillColor=none;" vertex="1" parent="1">
                    <mxGeometry x="-270" y="85" width="280" height="505" as="geometry"/>
                </mxCell>
                <mxCell id="30" value="" style="rounded=0;whiteSpace=wrap;html=1;fontSize=24;" vertex="1" parent="1">
                    <mxGeometry x="860" y="105" width="120" height="575" as="geometry"/>
                </mxCell>
                <mxCell id="37" value="Clients" style="text;html=1;strokeColor=none;fillColor=none;align=center;verticalAlign=middle;whiteSpace=wrap;rounded=0;fontSize=24;" vertex="1" parent="1">
                    <mxGeometry x="-280" y="20" width="100" height="40" as="geometry"/>
                </mxCell>
                <mxCell id="49" value="" style="edgeStyle=none;html=1;fontSize=24;entryX=-0.033;entryY=0.18;entryDx=0;entryDy=0;entryPerimeter=0;" edge="1" parent="1" source="40" target="30">
                    <mxGeometry relative="1" as="geometry"/>
                </mxCell>
                <mxCell id="40" value="" style="rounded=0;whiteSpace=wrap;html=1;fontSize=24;fillColor=none;" vertex="1" parent="1">
                    <mxGeometry x="240" y="80" width="510" height="250" as="geometry"/>
                </mxCell>
                <mxCell id="38" value="Background Services" style="whiteSpace=wrap;html=1;fontSize=24;rounded=0;" vertex="1" parent="1">
                    <mxGeometry x="260" y="210" width="225" height="60" as="geometry"/>
                </mxCell>
                <mxCell id="48" value="" style="edgeStyle=none;html=1;fontSize=24;entryX=0.033;entryY=0.577;entryDx=0;entryDy=0;entryPerimeter=0;" edge="1" parent="1" source="44" target="30">
                    <mxGeometry relative="1" as="geometry"/>
                </mxCell>
                <mxCell id="44" value="" style="rounded=0;whiteSpace=wrap;html=1;fontSize=24;fillColor=none;" vertex="1" parent="1">
                    <mxGeometry x="240" y="360" width="510" height="160" as="geometry"/>
                </mxCell>
                <mxCell id="47" value="" style="edgeStyle=none;html=1;fontSize=24;" edge="1" parent="1" source="46">
                    <mxGeometry relative="1" as="geometry">
                        <mxPoint x="870" y="610" as="targetPoint"/>
                    </mxGeometry>
                </mxCell>
                <mxCell id="46" value="" style="rounded=0;whiteSpace=wrap;html=1;fontSize=24;fillColor=none;" vertex="1" parent="1">
                    <mxGeometry x="240" y="550" width="520" height="130" as="geometry"/>
                </mxCell>
                <mxCell id="50" value="Gateway (envoy)" style="whiteSpace=wrap;html=1;aspect=fixed;fontSize=24;fillColor=none;" vertex="1" parent="1">
                    <mxGeometry x="70" y="290" width="80" height="80" as="geometry"/>
                </mxCell>
                <mxCell id="52" value="" style="endArrow=classic;startArrow=classic;html=1;fontSize=24;entryX=0.007;entryY=0.442;entryDx=0;entryDy=0;entryPerimeter=0;exitX=1.05;exitY=0.35;exitDx=0;exitDy=0;exitPerimeter=0;" edge="1" parent="1" source="50" target="40">
                    <mxGeometry width="50" height="50" relative="1" as="geometry">
                        <mxPoint x="80" y="410" as="sourcePoint"/>
                        <mxPoint x="130" y="360" as="targetPoint"/>
                    </mxGeometry>
                </mxCell>
                <mxCell id="53" value="" style="endArrow=classic;startArrow=classic;html=1;fontSize=24;exitX=-0.012;exitY=0.347;exitDx=0;exitDy=0;exitPerimeter=0;entryX=1;entryY=0.75;entryDx=0;entryDy=0;" edge="1" parent="1" source="44" target="50">
                    <mxGeometry width="50" height="50" relative="1" as="geometry">
                        <mxPoint x="80" y="410" as="sourcePoint"/>
                        <mxPoint x="130" y="360" as="targetPoint"/>
                    </mxGeometry>
                </mxCell>
                <mxCell id="54" value="" style="endArrow=classic;startArrow=classic;html=1;fontSize=24;exitX=-0.012;exitY=0.296;exitDx=0;exitDy=0;exitPerimeter=0;entryX=0.5;entryY=1;entryDx=0;entryDy=0;" edge="1" parent="1" source="46" target="50">
                    <mxGeometry width="50" height="50" relative="1" as="geometry">
                        <mxPoint x="80" y="410" as="sourcePoint"/>
                        <mxPoint x="130" y="360" as="targetPoint"/>
                    </mxGeometry>
                </mxCell>
                <mxCell id="55" value="" style="endArrow=classic;startArrow=classic;html=1;fontSize=24;exitX=1;exitY=0.5;exitDx=0;exitDy=0;entryX=-0.019;entryY=0.606;entryDx=0;entryDy=0;entryPerimeter=0;" edge="1" parent="1" source="36" target="50">
                    <mxGeometry width="50" height="50" relative="1" as="geometry">
                        <mxPoint x="80" y="410" as="sourcePoint"/>
                        <mxPoint x="130" y="360" as="targetPoint"/>
                    </mxGeometry>
                </mxCell>
            </root>
        </mxGraphModel>
    </diagram>
</mxfile>